<?xml version="1.0" encoding="UTF-8" standalone="no"?>
<!DOCTYPE svg PUBLIC "-//W3C//DTD SVG 1.1//EN" "http://www.w3.org/Graphics/SVG/1.1/DTD/svg11.dtd">
<svg width="100%" height="100%" viewBox="0 0 184 186" version="1.1" xmlns="http://www.w3.org/2000/svg" xmlns:xlink="http://www.w3.org/1999/xlink" xml:space="preserve" xmlns:serif="http://www.serif.com/" style="fill-rule:evenodd;clip-rule:evenodd;stroke-linecap:round;stroke-linejoin:round;stroke-miterlimit:1.5;">
    <g transform="matrix(1,0,0,1,-153.343,-43.7513)">
        <g transform="matrix(1,0,0,1,-45.4139,-20.9856)">
            <path d="M253.432,82.999C253.432,82.999 320.372,39.813 361.602,88.119C375.392,104.276 381.191,128.257 381.289,145.978C381.348,156.611 379.303,167.151 375.039,174.878C364.115,194.672 354.437,203.818 338.969,212.843C335.11,215.095 341.629,205.336 347.277,198.69C352.595,192.43 356.838,186.89 360.16,181.746C367.335,170.634 370.212,161.369 370.353,150.691C370.573,134.058 368.368,118.829 361.382,105.789C357.879,99.25 353.174,93.261 346.969,87.922C341.61,83.311 311.063,58.257 261.003,91.524" style="fill:rgb(131,106,73);"/>
            <clipPath id="_clip1">
                <path d="M253.432,82.999C253.432,82.999 320.372,39.813 361.602,88.119C375.392,104.276 381.191,128.257 381.289,145.978C381.348,156.611 379.303,167.151 375.039,174.878C364.115,194.672 354.437,203.818 338.969,212.843C335.11,215.095 341.629,205.336 347.277,198.69C352.595,192.43 356.838,186.89 360.16,181.746C367.335,170.634 370.212,161.369 370.353,150.691C370.573,134.058 368.368,118.829 361.382,105.789C357.879,99.25 353.174,93.261 346.969,87.922C341.61,83.311 311.063,58.257 261.003,91.524"/>
            </clipPath>
            <g clip-path="url(#_clip1)">
                <g transform="matrix(1,0,0,1,45.4139,20.9856)">
                    <path d="M322.596,137.508C322.596,137.508 326.057,155.2 336.057,142.892C346.057,130.585 306.827,216.737 297.596,207.122C288.366,197.507 278.75,182.123 289.904,177.892C301.058,173.661 323.75,134.046 322.596,137.508Z" style="fill:rgb(45,37,26);"/>
                </g>
                <g transform="matrix(1,0,0,1,-3.93839,4.59479)">
                    <path d="M257.393,85.971C257.393,85.971 320.372,39.813 361.602,88.119C375.392,104.276 379.211,125.038 379.309,142.759C379.367,153.392 377.502,166.452 369.66,176.041C363.187,183.956 351.203,196.83 336.448,209.063C333.009,211.914 341.629,205.336 347.277,198.69C352.595,192.43 356.838,186.89 360.16,181.746C367.335,170.634 370.212,161.369 370.353,150.691C370.573,134.058 368.368,118.829 361.382,105.789C357.879,99.25 353.174,93.261 346.969,87.922C341.61,83.311 311.063,58.257 261.003,91.524" style="fill-opacity:0.25;"/>
                </g>
            </g>
            <path d="M253.432,82.999C253.432,82.999 320.372,39.813 361.602,88.119C375.392,104.276 381.191,128.257 381.289,145.978C381.348,156.611 379.303,167.151 375.039,174.878C364.115,194.672 354.437,203.818 338.969,212.843C335.11,215.095 341.629,205.336 347.277,198.69C352.595,192.43 356.838,186.89 360.16,181.746C367.335,170.634 370.212,161.369 370.353,150.691C370.573,134.058 368.368,118.829 361.382,105.789C357.879,99.25 353.174,93.261 346.969,87.922C341.61,83.311 311.063,58.257 261.003,91.524" style="fill:none;stroke:black;stroke-width:1px;"/>
        </g>
        <g transform="matrix(-1,0,0,1,368.85,31.9706)">
            <path d="M174.942,174.902C174.942,174.902 185.772,185.043 189.317,193.708C191.485,199.007 194.195,195.3 194.141,191.543C194.107,189.157 191.931,187.399 191.089,185.831C189.691,183.225 191.547,186.159 193.496,189.302C194.566,191.028 193.726,193.483 193.726,194.181C193.726,196.15 203.48,194.094 195.626,182.791C193.693,180.008 195.794,183.686 198.13,187.172C199.554,189.295 199.148,192.179 198.776,192.626C197.791,193.807 210.289,191.443 199.557,178.151C193.156,170.224 195.842,174.337 199.557,178.151C202.071,180.732 203.613,184.638 203.733,184.718C204.028,184.915 209.009,180.711 196.997,170.471C193.83,167.771 187.272,166.529 185.111,165.008C179.078,160.762 180.564,159.369 179.766,156.687C178.683,153.044 174.942,174.902 174.942,174.902Z" style="fill:rgb(255,222,179);"/>
            <clipPath id="_clip2">
                <path d="M174.942,174.902C174.942,174.902 185.772,185.043 189.317,193.708C191.485,199.007 194.195,195.3 194.141,191.543C194.107,189.157 191.931,187.399 191.089,185.831C189.691,183.225 191.547,186.159 193.496,189.302C194.566,191.028 193.726,193.483 193.726,194.181C193.726,196.15 203.48,194.094 195.626,182.791C193.693,180.008 195.794,183.686 198.13,187.172C199.554,189.295 199.148,192.179 198.776,192.626C197.791,193.807 210.289,191.443 199.557,178.151C193.156,170.224 195.842,174.337 199.557,178.151C202.071,180.732 203.613,184.638 203.733,184.718C204.028,184.915 209.009,180.711 196.997,170.471C193.83,167.771 187.272,166.529 185.111,165.008C179.078,160.762 180.564,159.369 179.766,156.687C178.683,153.044 174.942,174.902 174.942,174.902Z"/>
            </clipPath>
            <g clip-path="url(#_clip2)">
                <g transform="matrix(-1,0,0,1,368.85,-31.9706)">
                    <path d="M161.874,223.649C161.874,223.649 165.021,216.035 173.278,205.855C177.884,200.177 188.109,198.027 192.466,194.578C204.635,184.944 186.213,183.761 186.213,183.761C186.213,183.761 150.55,206.409 154.606,218.071C158.663,229.734 161.874,223.649 161.874,223.649Z" style="fill-opacity:0.26;"/>
                </g>
            </g>
            <path d="M174.942,174.902C174.942,174.902 185.772,185.043 189.317,193.708C191.485,199.007 194.195,195.3 194.141,191.543C194.107,189.157 191.931,187.399 191.089,185.831C189.691,183.225 191.547,186.159 193.496,189.302C194.566,191.028 193.726,193.483 193.726,194.181C193.726,196.15 203.48,194.094 195.626,182.791C193.693,180.008 195.794,183.686 198.13,187.172C199.554,189.295 199.148,192.179 198.776,192.626C197.791,193.807 210.289,191.443 199.557,178.151C193.156,170.224 195.842,174.337 199.557,178.151C202.071,180.732 203.613,184.638 203.733,184.718C204.028,184.915 209.009,180.711 196.997,170.471C193.83,167.771 187.272,166.529 185.111,165.008C179.078,160.762 180.564,159.369 179.766,156.687C178.683,153.044 174.942,174.902 174.942,174.902Z" style="fill:none;stroke:black;stroke-width:1px;"/>
        </g>
        <g transform="matrix(1,0,0,1,79.7929,31.9706)">
            <path d="M174.942,174.902C174.942,174.902 185.772,185.043 189.317,193.708C191.485,199.007 194.195,195.3 194.141,191.543C194.107,189.157 191.931,187.399 191.089,185.831C189.691,183.225 191.547,186.159 193.496,189.302C194.566,191.028 193.726,193.483 193.726,194.181C193.726,196.15 203.48,194.094 195.626,182.791C193.693,180.008 195.794,183.686 198.13,187.172C199.554,189.295 199.148,192.179 198.776,192.626C197.791,193.807 210.289,191.443 199.557,178.151C193.156,170.224 195.842,174.337 199.557,178.151C202.071,180.732 203.613,184.638 203.733,184.718C204.028,184.915 209.009,180.711 196.997,170.471C193.83,167.771 187.272,166.529 185.111,165.008C179.078,160.762 180.564,159.369 179.766,156.687C178.683,153.044 174.942,174.902 174.942,174.902Z" style="fill:rgb(255,222,179);"/>
            <clipPath id="_clip3">
                <path d="M174.942,174.902C174.942,174.902 185.772,185.043 189.317,193.708C191.485,199.007 194.195,195.3 194.141,191.543C194.107,189.157 191.931,187.399 191.089,185.831C189.691,183.225 191.547,186.159 193.496,189.302C194.566,191.028 193.726,193.483 193.726,194.181C193.726,196.15 203.48,194.094 195.626,182.791C193.693,180.008 195.794,183.686 198.13,187.172C199.554,189.295 199.148,192.179 198.776,192.626C197.791,193.807 210.289,191.443 199.557,178.151C193.156,170.224 195.842,174.337 199.557,178.151C202.071,180.732 203.613,184.638 203.733,184.718C204.028,184.915 209.009,180.711 196.997,170.471C193.83,167.771 187.272,166.529 185.111,165.008C179.078,160.762 180.564,159.369 179.766,156.687C178.683,153.044 174.942,174.902 174.942,174.902Z"/>
            </clipPath>
            <g clip-path="url(#_clip3)">
                <g transform="matrix(1,0,0,1,-79.7929,-31.9706)">
                    <path d="M256.831,229.555L273.337,238.468C273.337,238.468 274.449,230.678 273.669,224.742C272.706,217.414 267.758,212.846 258.812,201.825C243.193,182.584 256.831,229.555 256.831,229.555Z" style="fill-opacity:0.26;"/>
                </g>
            </g>
            <path d="M174.942,174.902C174.942,174.902 185.772,185.043 189.317,193.708C191.485,199.007 194.195,195.3 194.141,191.543C194.107,189.157 191.931,187.399 191.089,185.831C189.691,183.225 191.547,186.159 193.496,189.302C194.566,191.028 193.726,193.483 193.726,194.181C193.726,196.15 203.48,194.094 195.626,182.791C193.693,180.008 195.794,183.686 198.13,187.172C199.554,189.295 199.148,192.179 198.776,192.626C197.791,193.807 210.289,191.443 199.557,178.151C193.156,170.224 195.842,174.337 199.557,178.151C202.071,180.732 203.613,184.638 203.733,184.718C204.028,184.915 209.009,180.711 196.997,170.471C193.83,167.771 187.272,166.529 185.111,165.008C179.078,160.762 180.564,159.369 179.766,156.687C178.683,153.044 174.942,174.902 174.942,174.902Z" style="fill:none;stroke:black;stroke-width:1px;"/>
        </g>
        <path d="M199.695,212.211C200.185,213.65 200.354,214.855 199.303,214.721C196.96,214.423 194.342,207.194 193.748,204.493C192.916,200.713 192.549,193.477 176.684,184.824C165.109,178.51 160.673,163.29 159.121,155.52C153.115,145.619 153.874,131.084 153.874,118.734C153.874,100.091 161.63,90.698 173.197,79.422C184.294,68.604 192.878,58.246 211.079,58.246C221.453,58.246 229.764,62.324 239.212,66.142C246.41,69.05 254.281,70.557 260.405,75.053C269.9,82.025 274.586,92.976 278.256,104.779C280.245,111.178 282.985,117.129 283.635,124.428C284.247,131.306 282.264,139.24 278.287,147.115L279.54,145.789C279.54,145.789 276.099,173.981 268.369,180.673C260.638,187.366 259.946,191.75 259.715,195.443C259.484,199.135 262.6,209.464 260.108,214.669C258.592,217.832 254.631,220.261 254.792,219.419C254.942,219.201 255.089,218.97 255.232,218.73L255.233,218.73C257.15,216.481 258.33,211.712 258.1,212.058C257.931,212.311 256.813,216.082 255.232,218.73C254.955,219.055 254.818,219.281 254.792,219.419C254.333,220.085 253.842,220.632 253.329,220.964C250.639,222.703 253.553,215.736 253.553,214.582C253.553,213.428 252.857,219.321 250.05,220.973C247.952,222.207 250.203,213.177 250.151,212.855C249.433,208.38 249.403,218.369 246.695,218.404C245.765,218.416 245.712,215.786 246.215,213.788C246.554,212.441 249.677,179.866 246.561,180.673L248.313,178.821C238.9,184.388 228.211,187.887 217.021,187.887C211.999,187.887 207.104,187.346 202.393,186.319L210.114,192.551C210.296,192.681 210.404,192.785 210.404,192.785L210.114,192.551C208.952,191.718 204.78,189.809 206.449,206.942C206.536,207.831 208.861,212.379 208.554,213.069C208.361,213.5 206.402,212.642 205.438,211.309L205.437,211.308L205.342,211.171L205.31,211.124C204.322,209.622 204.206,207.76 204.097,208.22C203.908,209.024 204.616,210.115 205.31,211.124L205.337,211.165C205.353,211.189 205.37,211.213 205.387,211.237L205.437,211.308C205.949,212.051 206.423,212.736 206.483,213.212C206.778,215.553 203.654,214.025 202.805,212.462L202.679,212.15C200.121,205.857 200.816,208.742 202.713,212.289L202.805,212.462C203.86,215.072 203.222,215.912 202.248,215.665C201.499,215.474 200.403,214.168 199.7,212.226L199.695,212.211C199.665,212.124 199.634,212.035 199.602,211.946C198.961,210.054 198.639,207.934 198.226,207.817C197.682,207.663 198.888,209.959 199.602,211.946C199.632,212.035 199.663,212.124 199.695,212.211Z" style="fill:rgb(255,222,179);"/>
        <clipPath id="_clip4">
            <path d="M199.695,212.211C200.185,213.65 200.354,214.855 199.303,214.721C196.96,214.423 194.342,207.194 193.748,204.493C192.916,200.713 192.549,193.477 176.684,184.824C165.109,178.51 160.673,163.29 159.121,155.52C153.115,145.619 153.874,131.084 153.874,118.734C153.874,100.091 161.63,90.698 173.197,79.422C184.294,68.604 192.878,58.246 211.079,58.246C221.453,58.246 229.764,62.324 239.212,66.142C246.41,69.05 254.281,70.557 260.405,75.053C269.9,82.025 274.586,92.976 278.256,104.779C280.245,111.178 282.985,117.129 283.635,124.428C284.247,131.306 282.264,139.24 278.287,147.115L279.54,145.789C279.54,145.789 276.099,173.981 268.369,180.673C260.638,187.366 259.946,191.75 259.715,195.443C259.484,199.135 262.6,209.464 260.108,214.669C258.592,217.832 254.631,220.261 254.792,219.419C254.942,219.201 255.089,218.97 255.232,218.73L255.233,218.73C257.15,216.481 258.33,211.712 258.1,212.058C257.931,212.311 256.813,216.082 255.232,218.73C254.955,219.055 254.818,219.281 254.792,219.419C254.333,220.085 253.842,220.632 253.329,220.964C250.639,222.703 253.553,215.736 253.553,214.582C253.553,213.428 252.857,219.321 250.05,220.973C247.952,222.207 250.203,213.177 250.151,212.855C249.433,208.38 249.403,218.369 246.695,218.404C245.765,218.416 245.712,215.786 246.215,213.788C246.554,212.441 249.677,179.866 246.561,180.673L248.313,178.821C238.9,184.388 228.211,187.887 217.021,187.887C211.999,187.887 207.104,187.346 202.393,186.319L210.114,192.551C210.296,192.681 210.404,192.785 210.404,192.785L210.114,192.551C208.952,191.718 204.78,189.809 206.449,206.942C206.536,207.831 208.861,212.379 208.554,213.069C208.361,213.5 206.402,212.642 205.438,211.309L205.437,211.308L205.342,211.171L205.31,211.124C204.322,209.622 204.206,207.76 204.097,208.22C203.908,209.024 204.616,210.115 205.31,211.124L205.337,211.165C205.353,211.189 205.37,211.213 205.387,211.237L205.437,211.308C205.949,212.051 206.423,212.736 206.483,213.212C206.778,215.553 203.654,214.025 202.805,212.462L202.679,212.15C200.121,205.857 200.816,208.742 202.713,212.289L202.805,212.462C203.86,215.072 203.222,215.912 202.248,215.665C201.499,215.474 200.403,214.168 199.7,212.226L199.695,212.211C199.665,212.124 199.634,212.035 199.602,211.946C198.961,210.054 198.639,207.934 198.226,207.817C197.682,207.663 198.888,209.959 199.602,211.946C199.632,212.035 199.663,212.124 199.695,212.211Z"/>
        </clipPath>
        <g clip-path="url(#_clip4)">
            <g transform="matrix(1.30932,0,0,1.30932,-70.1388,-23.8855)">
                <path d="M161.499,72.602C161.499,72.602 156.219,105.052 163.28,124.871C165.366,130.724 167.939,142.769 171.777,147.867C179.986,158.769 180.957,156.924 193.723,166.595C197.515,169.468 201.088,165.572 208.568,166.285C223.992,167.755 245.779,163.324 254.18,164.904C255.417,165.137 253.789,163.532 254.453,163.112C261.803,158.47 271.554,133.012 275.036,113.283C277.851,97.332 257.241,52.547 265.365,34.752C273.489,16.957 229.387,35.526 206.563,32.818C183.739,30.11 156.464,81.222 156.464,81.222" style="fill:rgb(246,191,139);"/>
            </g>
            <g transform="matrix(1.21942,0,0,1.21942,-48.026,-20.8444)">
                <path d="M161.499,72.602C161.499,72.602 156.219,105.052 163.28,124.871C165.366,130.724 167.939,142.769 171.777,147.867C179.986,158.769 177.936,153.129 190.702,162.8C203.468,172.471 249.117,165.121 256.467,160.479C263.817,155.837 271.554,133.012 275.036,113.283C277.851,97.332 257.241,52.547 265.365,34.752C273.489,16.957 229.387,35.526 206.563,32.818C183.739,30.11 156.464,81.222 156.464,81.222" style="fill:rgb(224,159,98);"/>
            </g>
            <g transform="matrix(1,0,0,1,1.16056,2.70796)">
                <path d="M161.499,72.602C161.499,72.602 156.219,105.052 163.28,124.871C165.366,130.724 167.939,142.769 171.777,147.867C179.986,158.769 177.936,153.129 190.702,162.8C203.468,172.471 249.117,165.121 256.467,160.479C263.817,155.837 271.554,133.012 275.036,113.283C277.851,97.332 257.241,52.547 265.365,34.752C273.489,16.957 229.387,35.526 206.563,32.818C183.739,30.11 156.464,81.222 156.464,81.222" style="fill:rgb(216,146,82);"/>
            </g>
            <g transform="matrix(0.573427,0,0,0.788275,94.9992,-15.1855)">
                <path d="M161.499,72.602C161.499,72.602 156.219,105.052 163.28,124.871C165.366,130.724 167.939,142.769 171.777,147.867C179.986,158.769 177.936,153.129 190.702,162.8C203.468,172.471 249.117,165.121 256.467,160.479C263.817,155.837 271.554,133.012 275.036,113.283C277.851,97.332 257.241,52.547 265.365,34.752C273.489,16.957 229.387,35.526 206.563,32.818C183.739,30.11 156.464,81.222 156.464,81.222" style="fill:rgb(194,122,55);"/>
            </g>
            <path d="M174.44,65.609C172.786,69.709 157.234,113.742 162.523,135.534C165.093,146.12 165.202,156.617 174.027,167.944C193.908,193.46 186.033,182.619 192.596,189.814C203.326,201.577 199.198,216.635 203.324,222.412C207.451,228.189 119.558,193.527 130.7,166.706C135.509,155.128 119.023,124.684 127.88,104.222C139.543,77.279 176.17,61.319 174.44,65.609Z" style="fill-opacity:0.26;"/>
            <g transform="matrix(1,0,0,1,-1.26763,-1.05636)">
                <path d="M237.87,224.138C237.87,224.138 252.401,234.404 251.602,200.053C251.18,181.884 256.673,170.686 253.292,171.109C249.912,171.531 241.884,194.771 241.884,194.771L237.87,224.138Z" style="fill-opacity:0.26;"/>
            </g>
        </g>
        <path d="M199.695,212.211C200.185,213.65 200.354,214.855 199.303,214.721C196.96,214.423 194.342,207.194 193.748,204.493C192.916,200.713 192.549,193.477 176.684,184.824C165.109,178.51 160.673,163.29 159.121,155.52C153.115,145.619 153.874,131.084 153.874,118.734C153.874,100.091 161.63,90.698 173.197,79.422C184.294,68.604 192.878,58.246 211.079,58.246C221.453,58.246 229.764,62.324 239.212,66.142C246.41,69.05 254.281,70.557 260.405,75.053C269.9,82.025 274.586,92.976 278.256,104.779C280.245,111.178 282.985,117.129 283.635,124.428C284.247,131.306 282.264,139.24 278.287,147.115L279.54,145.789C279.54,145.789 276.099,173.981 268.369,180.673C260.638,187.366 259.946,191.75 259.715,195.443C259.484,199.135 262.6,209.464 260.108,214.669C258.592,217.832 254.631,220.261 254.792,219.419C254.942,219.201 255.089,218.97 255.232,218.73L255.233,218.73C257.15,216.481 258.33,211.712 258.1,212.058C257.931,212.311 256.813,216.082 255.232,218.73C254.955,219.055 254.818,219.281 254.792,219.419C254.333,220.085 253.842,220.632 253.329,220.964C250.639,222.703 253.553,215.736 253.553,214.582C253.553,213.428 252.857,219.321 250.05,220.973C247.952,222.207 250.203,213.177 250.151,212.855C249.433,208.38 249.403,218.369 246.695,218.404C245.765,218.416 245.712,215.786 246.215,213.788C246.554,212.441 249.677,179.866 246.561,180.673L248.313,178.821C238.9,184.388 228.211,187.887 217.021,187.887C211.999,187.887 207.104,187.346 202.393,186.319L210.114,192.551C210.296,192.681 210.404,192.785 210.404,192.785L210.114,192.551C208.952,191.718 204.78,189.809 206.449,206.942C206.536,207.831 208.861,212.379 208.554,213.069C208.361,213.5 206.402,212.642 205.438,211.309L205.437,211.308L205.342,211.171L205.31,211.124C204.322,209.622 204.206,207.76 204.097,208.22C203.908,209.024 204.616,210.115 205.31,211.124L205.337,211.165C205.353,211.189 205.37,211.213 205.387,211.237L205.437,211.308C205.949,212.051 206.423,212.736 206.483,213.212C206.778,215.553 203.654,214.025 202.805,212.462L202.679,212.15C200.121,205.857 200.816,208.742 202.713,212.289L202.805,212.462C203.86,215.072 203.222,215.912 202.248,215.665C201.499,215.474 200.403,214.168 199.7,212.226L199.695,212.211C199.665,212.124 199.634,212.035 199.602,211.946C198.961,210.054 198.639,207.934 198.226,207.817C197.682,207.663 198.888,209.959 199.602,211.946C199.632,212.035 199.663,212.124 199.695,212.211Z" style="fill:none;stroke:black;stroke-width:1px;"/>
        <g transform="matrix(1,0,0,1,85.4741,26.4419)">
            <path d="M140.309,192.306C140.309,192.306 127.04,191.585 121.559,181.056C116.078,170.528 117.809,167.499 117.232,167.066C116.655,166.633 115.357,161.73 97.329,150.336C79.3,138.941 97.329,101.009 98.915,101.442C100.502,101.875 86.944,90.192 87.088,85.432C87.233,80.673 88.963,63.077 90.983,65.096C93.002,67.115 110.165,73.173 115.79,78.365C121.415,83.558 119.54,75.769 138.722,74.76C157.905,73.75 160.357,78.221 163.53,79.952C166.703,81.683 164.107,75.192 173.77,72.308C183.433,69.423 187.039,60.914 189.491,62.356C191.943,63.798 195.404,66.971 194.972,72.74C194.539,78.509 193.385,79.663 193.962,83.846C194.539,88.029 188.914,92.788 188.193,93.798C187.472,94.807 177.231,103.461 177.376,106.201C177.52,108.942 190.933,127.836 185.885,139.951C180.837,152.066 169.299,154.518 166.703,158.557C164.107,162.595 161.51,164.758 160.934,173.412C160.357,182.066 150.116,188.989 149.684,189.133C149.251,189.277 144.924,192.595 140.309,192.306" style="fill:rgb(255,222,179);"/>
            <clipPath id="_clip5">
                <path d="M140.309,192.306C140.309,192.306 127.04,191.585 121.559,181.056C116.078,170.528 117.809,167.499 117.232,167.066C116.655,166.633 115.357,161.73 97.329,150.336C79.3,138.941 97.329,101.009 98.915,101.442C100.502,101.875 86.944,90.192 87.088,85.432C87.233,80.673 88.963,63.077 90.983,65.096C93.002,67.115 110.165,73.173 115.79,78.365C121.415,83.558 119.54,75.769 138.722,74.76C157.905,73.75 160.357,78.221 163.53,79.952C166.703,81.683 164.107,75.192 173.77,72.308C183.433,69.423 187.039,60.914 189.491,62.356C191.943,63.798 195.404,66.971 194.972,72.74C194.539,78.509 193.385,79.663 193.962,83.846C194.539,88.029 188.914,92.788 188.193,93.798C187.472,94.807 177.231,103.461 177.376,106.201C177.52,108.942 190.933,127.836 185.885,139.951C180.837,152.066 169.299,154.518 166.703,158.557C164.107,162.595 161.51,164.758 160.934,173.412C160.357,182.066 150.116,188.989 149.684,189.133C149.251,189.277 144.924,192.595 140.309,192.306"/>
            </clipPath>
            <g clip-path="url(#_clip5)">
                <g transform="matrix(1,0,0,1,-85.4741,-26.4419)">
                    <path d="M224.344,77.225C261.58,77.225 291.811,91.092 291.811,108.173C291.811,111.995 273.189,128.8 267.366,132.212C263.317,134.584 263.26,134.283 260.978,128.402C260.454,127.053 261.802,125.008 259.541,125.131C239.287,126.235 208.024,115.957 188.597,122.515C184.851,123.779 190.337,122.06 184.955,128.182C173.308,141.428 156.877,118.409 156.877,108.173C156.877,91.092 187.108,77.225 224.344,77.225Z" style="fill:rgb(153,124,98);"/>
                </g>
                <g transform="matrix(1.22751,0,0,1.00761,-135.058,16.9917)">
                    <path d="M183.185,46.353C183.185,46.353 186.647,51.123 189.302,58.664C190.686,62.595 190.422,67.399 191.221,72.037C191.692,74.772 193.394,77.451 193.697,79.858C195.165,91.492 188.301,106.575 188.392,115.019C188.461,121.398 198.702,137.273 202.541,142.371C208.526,150.32 206.957,154.905 209.572,159.978C210.543,161.862 211.782,165.991 215.642,167.969C229.513,175.076 228.479,172.037 237.365,162.894C240.239,159.937 238.736,150.007 243.229,141.908C245.999,136.915 253.874,126.885 256.631,114.268C258.53,105.576 248.278,86.129 251.902,80.521C257.984,71.11 257.144,68.641 257.58,62.491C257.744,60.179 258.611,57.985 259.279,55.956C261.727,48.518 266.002,42.915 269.503,37.045C279.43,20.399 229.387,35.526 206.563,32.818C183.739,30.11 183.185,46.353 183.185,46.353" style="fill:rgb(226,175,126);"/>
                </g>
                <g transform="matrix(0.732982,0,0,1.00761,-24.5747,16.0014)">
                    <path d="M186.687,59.236C186.687,59.236 190.76,86.599 197.822,106.419C199.907,112.271 198.702,137.273 202.541,142.371C210.749,153.272 199.116,159.03 213.37,166.333C227.241,173.441 225.251,172.422 235.961,166.265C241.361,163.161 240.427,151.892 242.114,142.336C243.066,136.94 248.899,119.437 251.656,106.819C253.555,98.128 252.469,91.381 253.839,84.846C265.097,31.126 262.645,43.994 265.365,34.752C270.888,15.986 229.387,35.526 206.563,32.818C183.739,30.11 186.687,59.236 186.687,59.236" style="fill:rgb(221,164,111);"/>
                </g>
                <g transform="matrix(0.573427,0,0,0.788275,11.0725,15.3172)">
                    <path d="M186.687,59.236C186.687,59.236 190.76,86.599 197.822,106.419C199.907,112.271 198.702,137.273 202.541,142.371C210.749,153.272 199.116,159.03 213.37,166.333C227.241,173.441 225.251,172.422 235.961,166.265C241.361,163.161 240.427,151.892 242.114,142.336C243.066,136.94 248.899,119.437 251.656,106.819C253.555,98.128 252.469,91.381 253.839,84.846C265.097,31.126 262.645,43.994 265.365,34.752C270.888,15.986 229.387,35.526 206.563,32.818C183.739,30.11 186.687,59.236 186.687,59.236" style="fill:rgb(199,135,75);"/>
                </g>
                <g transform="matrix(1,0,0,1,-85.4741,-26.4419)">
                    <path d="M221.637,225.847C221.637,225.847 212.13,200.705 211.919,195.846C211.698,190.772 190.581,167.747 187.2,168.803C185.745,169.258 179.799,160.637 178.812,152.032C177.506,140.652 181.549,128.033 183.397,124.014C185.003,120.52 168.662,141.342 164.687,161.328C160.874,180.501 167.341,202.184 167.341,202.184L221.637,225.847Z" style="fill-opacity:0.26;"/>
                </g>
            </g>
            <path d="M140.309,192.306C140.309,192.306 127.04,191.585 121.559,181.056C116.078,170.528 117.809,167.499 117.232,167.066C116.655,166.633 115.357,161.73 97.329,150.336C79.3,138.941 97.329,101.009 98.915,101.442C100.502,101.875 86.944,90.192 87.088,85.432C87.233,80.673 88.963,63.077 90.983,65.096C93.002,67.115 110.165,73.173 115.79,78.365C121.415,83.558 119.54,75.769 138.722,74.76C157.905,73.75 160.357,78.221 163.53,79.952C166.703,81.683 164.107,75.192 173.77,72.308C183.433,69.423 187.039,60.914 189.491,62.356C191.943,63.798 195.404,66.971 194.972,72.74C194.539,78.509 193.385,79.663 193.962,83.846C194.539,88.029 188.914,92.788 188.193,93.798C187.472,94.807 177.231,103.461 177.376,106.201C177.52,108.942 190.933,127.836 185.885,139.951C180.837,152.066 169.299,154.518 166.703,158.557C164.107,162.595 161.51,164.758 160.934,173.412C160.357,182.066 150.116,188.989 149.684,189.133C149.251,189.277 144.924,192.595 140.309,192.306" style="fill:none;stroke:black;stroke-width:1px;"/>
        </g>
        <g transform="matrix(1,0,0,1,4.22545,0)">
            <g transform="matrix(1,0,0,1,81.2487,26.4419)">
                <path d="M114.702,122.809C114.275,122.405 106.145,127.129 110.59,133.983C115.034,140.836 121.057,134.938 120.434,135.603C119.811,136.267 121.722,129.455 114.702,122.809Z" style="stroke:black;stroke-width:1px;"/>
            </g>
        </g>
        <g transform="matrix(1,0,0,1,4.22545,0)">
            <g transform="matrix(1,0,0,1,81.2487,26.4419)">
                <path d="M112.213,121.069C112.213,121.069 121.126,123.545 120.631,140.876" style="fill:none;stroke:black;stroke-width:1px;"/>
            </g>
        </g>
        <g transform="matrix(1,0,0,1,4.22545,0)">
            <g transform="matrix(-1,0,0,1,361.011,26.4419)">
                <path d="M114.702,122.809C114.275,122.405 106.145,127.129 110.59,133.983C115.034,140.836 121.057,134.938 120.434,135.603C119.811,136.267 121.722,129.455 114.702,122.809Z" style="stroke:black;stroke-width:1px;"/>
            </g>
        </g>
        <g transform="matrix(1,0,0,1,4.22545,0)">
            <g transform="matrix(-1,0,0,1,361.011,26.4419)">
                <path d="M112.213,121.069C112.213,121.069 121.126,123.545 120.631,140.876" style="fill:none;stroke:black;stroke-width:1px;"/>
            </g>
        </g>
        <g transform="matrix(1,0,0,1,4.22545,0)">
            <g transform="matrix(1,0,0,1,81.2487,26.4419)">
                <circle cx="115.68" cy="128.315" r="1.01" style="fill:rgb(255,244,236);"/>
            </g>
        </g>
        <g transform="matrix(1,0,0,1,4.22545,0)">
            <g transform="matrix(0.561404,0,0,0.561404,179.468,82.2033)">
                <circle cx="115.68" cy="128.315" r="1.01" style="fill:rgb(255,244,236);"/>
            </g>
        </g>
        <path d="M219.016,203.98C219.016,203.98 219.711,212.883 221.716,214.573C223.761,216.296 226.733,217.807 229.94,214.656C232.318,212.319 232.64,204.23 232.266,203.648C231.893,203.066 220.179,202.61 219.016,203.98Z" style="fill-opacity:0.24;"/>
        <clipPath id="_clip6">
            <path d="M219.016,203.98C219.016,203.98 219.711,212.883 221.716,214.573C223.761,216.296 226.733,217.807 229.94,214.656C232.318,212.319 232.64,204.23 232.266,203.648C231.893,203.066 220.179,202.61 219.016,203.98Z"/>
        </clipPath>
        <g clip-path="url(#_clip6)">
            <g transform="matrix(1,0,0,1,2.21837,-0.633819)">
                <path d="M219.016,203.98C219.016,203.98 219.711,212.883 221.716,214.573C223.761,216.296 226.733,217.807 229.94,214.656C232.318,212.319 232.64,204.23 232.266,203.648C231.893,203.066 220.179,202.61 219.016,203.98Z" style="fill:rgb(229,183,156);"/>
            </g>
        </g>
        <g>
            <g transform="matrix(-1,0,0,1,365.914,26.4419)">
                <path d="M133.574,177.376C133.394,178.457 133.574,186.029 135.918,188.012" style="fill:none;stroke:black;stroke-width:1px;"/>
            </g>
            <g transform="matrix(1,0,0,1,85.4741,26.4419)">
                <path d="M133.574,177.376C133.394,178.457 133.574,186.029 135.918,188.012" style="fill:none;stroke:black;stroke-width:1px;"/>
            </g>
        </g>
        <g transform="matrix(1,0,0,1,85.4741,26.4419)">
            <path d="M90.818,65.824C90.818,65.824 97.395,72.631 98.779,82.208C100.164,91.785 100.741,93.631 102.933,95.939" style="fill:none;stroke:black;stroke-width:1px;"/>
        </g>
        <g transform="matrix(1,0,0,1,85.4741,26.4419)">
            <path d="M174.009,98.592C174.009,98.592 181.394,90.752 181.163,82.785C180.932,74.823 189.24,62.708 188.894,62.593" style="fill:none;stroke:black;stroke-width:1px;"/>
        </g>
        <path d="M193.009,73.074C193.009,73.834 192.766,74.555 192.766,75.264" style="fill:none;stroke:rgb(34,22,0);stroke-width:1px;"/>
        <path d="M201.447,78.104C201.653,78.723 201.609,79.392 201.609,80.051" style="fill:none;stroke:rgb(34,22,0);stroke-width:1px;"/>
        <path d="M203.475,76.724C203.475,76.933 203.475,78.027 203.475,77.86" style="fill:none;stroke:rgb(34,22,0);stroke-width:1px;"/>
        <path d="M205.422,78.022L205.422,78.59" style="fill:none;stroke:rgb(34,22,0);stroke-width:1px;"/>
        <path d="M190.89,72.632L190.89,74.407" style="fill:none;stroke:rgb(34,22,0);stroke-width:1px;"/>
        <path d="M236.161,86.414C236.161,86.774 235.936,88.892 236.432,87.901" style="fill:none;stroke:rgb(34,22,0);stroke-width:1px;"/>
        <path d="M239.947,83.574L239.947,85.602" style="fill:none;stroke:rgb(34,22,0);stroke-width:1px;"/>
        <path d="M272.264,128.601C272.186,128.91 272.206,129.238 272.128,129.547C272.043,129.89 271.588,129.696 271.588,129.953" style="fill:none;stroke:rgb(34,22,0);stroke-width:1px;"/>
        <path d="M274.833,130.358C274.833,131.078 274.698,131.85 274.698,132.522" style="fill:none;stroke:rgb(34,22,0);stroke-width:1px;"/>
        <path d="M278.619,121.299C278.619,122.321 278.213,123.103 278.213,124.139" style="fill:none;stroke:rgb(34,22,0);stroke-width:1px;"/>
        <path d="M159.368,134.936C159.368,136.755 159.58,138.693 159.58,140.429" style="fill:none;stroke:rgb(34,22,0);stroke-width:1px;"/>
        <path d="M161.61,133.134C161.61,133.602 161.457,134.446 161.61,134.906C161.652,135.032 161.795,135.387 161.887,135.294" style="fill:none;stroke:rgb(34,22,0);stroke-width:1px;"/>
        <path d="M206.086,121.369C206.086,122.109 206.41,122.675 206.41,123.316" style="fill:none;stroke:rgb(34,22,0);stroke-width:1px;"/>
        <path d="M208.466,118.557C208.299,119.224 208.357,119.925 208.357,120.612" style="fill:none;stroke:rgb(34,22,0);stroke-width:1px;"/>
        <path d="M241.242,133.917L241.242,136.73C241.242,136.932 241.34,137.595 241.133,137.595" style="fill:none;stroke:rgb(34,22,0);stroke-width:1px;"/>
        <path d="M243.838,132.295L243.838,134.133" style="fill:none;stroke:rgb(34,22,0);stroke-width:1px;"/>
        <path d="M215.817,152.186C215.817,153.039 215.462,155.132 216.147,155.817" style="fill:none;stroke:rgb(34,22,0);stroke-width:1px;"/>
        <path d="M192.379,166.38C192.379,167.059 192.224,167.546 192.709,168.031" style="fill:none;stroke:black;stroke-width:1px;"/>
        <path d="M190.822,168.576C190.822,168.762 190.725,169.421 190.822,169.614C190.941,169.852 191.237,170.255 191.237,170.514" style="fill:none;stroke:black;stroke-width:1px;"/>
        <path d="M246.428,179.661C246.428,180.194 246.684,180.972 246.515,181.479C246.385,181.868 245.995,182.244 245.995,182.69" style="fill:none;stroke:black;stroke-width:1px;"/>
        <path d="M248.418,177.757C248.418,178.452 248.245,179.194 248.245,179.748" style="fill:none;stroke:black;stroke-width:1px;"/>
        <path d="M222.55,183.664C222.55,184.261 222.362,185.175 222.55,185.741C222.803,186.498 223.156,187.314 223.156,188.164" style="fill:none;stroke:black;stroke-width:1px;"/>
        <path d="M227.396,182.366C227.396,183.244 227.333,183.83 227.137,184.616C227.075,184.864 227.167,185.335 227.05,185.568C226.957,185.755 226.618,185.968 226.618,186.173" style="fill:none;stroke:black;stroke-width:1px;"/>
    </g>
</svg>
