<?xml version="1.0" encoding="UTF-8" standalone="no"?>
<!DOCTYPE svg PUBLIC "-//W3C//DTD SVG 1.1//EN" "http://www.w3.org/Graphics/SVG/1.1/DTD/svg11.dtd">
<svg width="100%" height="100%" viewBox="0 0 477 471" version="1.1" xmlns="http://www.w3.org/2000/svg" xmlns:xlink="http://www.w3.org/1999/xlink" xml:space="preserve" xmlns:serif="http://www.serif.com/" style="fill-rule:evenodd;clip-rule:evenodd;stroke-linejoin:round;stroke-miterlimit:2;">
    <g transform="matrix(1,0,0,1,-21.7717,-24.64)">
        <g transform="matrix(2.86832,0,0,2.86832,-180.569,-366.897)">
            <path d="M136.943,153.58L136.943,144.804C136.943,140.223 140.662,136.504 145.243,136.504L161.844,136.504C166.425,136.504 170.144,140.223 170.144,144.804L170.144,153.58C176.393,155.175 182.292,157.65 187.704,160.867L194.637,153.933C197.876,150.694 203.136,150.694 206.376,153.933L218.114,165.672C221.353,168.911 221.353,174.171 218.114,177.41L211.181,184.343C214.396,189.754 216.872,195.654 218.467,201.903L228.243,201.903C232.824,201.903 236.543,205.623 236.543,210.204L236.543,226.804C236.543,231.385 232.824,235.104 228.243,235.104L218.467,235.104C216.872,241.354 214.397,247.253 211.181,252.664L218.651,260.135C221.89,263.374 221.89,268.634 218.651,271.873L206.912,283.611C203.673,286.851 198.413,286.851 195.174,283.611L187.704,276.141C182.293,279.357 176.393,281.832 170.144,283.428L170.144,292.204C170.144,296.785 166.425,300.504 161.844,300.504L145.243,300.504C140.662,300.504 136.943,296.785 136.943,292.204L136.943,283.428C130.694,281.833 124.795,279.358 119.383,276.141L112.449,283.074C109.21,286.314 103.95,286.314 100.711,283.074L88.973,271.336C85.733,268.097 85.733,262.837 88.973,259.598L95.906,252.664C92.69,247.254 90.215,241.354 88.619,235.104L78.844,235.104C74.263,235.104 70.543,231.385 70.543,226.804L70.543,210.204C70.543,205.623 74.263,201.903 78.844,201.903L88.619,201.903C90.215,195.654 92.689,189.755 95.906,184.343L88.436,176.873C85.197,173.634 85.197,168.374 88.436,165.135L100.174,153.396C103.413,150.157 108.673,150.157 111.912,153.396L119.383,160.867C124.793,157.651 130.693,155.176 136.943,153.58ZM153.543,185.004C172.032,185.004 187.043,200.015 187.043,218.504C187.043,236.993 172.032,252.004 153.543,252.004C135.054,252.004 120.043,236.993 120.043,218.504C120.043,200.015 135.054,185.004 153.543,185.004Z" style="fill:currentColor"/>
        </g>
    </g>
</svg>
