<?xml version="1.0" encoding="UTF-8" standalone="no"?><!DOCTYPE svg PUBLIC "-//W3C//DTD SVG 1.1//EN" "http://www.w3.org/Graphics/SVG/1.1/DTD/svg11.dtd">
<svg width="100%" height="100%" viewBox="0 0 144 174" version="1.1" xmlns="http://www.w3.org/2000/svg" xmlns:xlink="http://www.w3.org/1999/xlink" xml:space="preserve" xmlns:serif="http://www.serif.com/" style="fill-rule:evenodd;clip-rule:evenodd;stroke-linecap:round;stroke-linejoin:round;stroke-miterlimit:1.5;"><path d="M136.044,54.625c-0,-7.316 -5.939,-13.255 -13.255,-13.255l-68.164,0c-7.316,0 -13.255,5.939 -13.255,13.255l0,98.407c0,7.315 5.939,13.254 13.255,13.254l68.164,0c7.316,0 13.255,-5.939 13.255,-13.254l-0,-98.407Z" style="fill:#fff;fill-opacity:0;stroke:#000;stroke-width:14px;"/><path d="M41.37,131.916l0,-77.291c0,-7.316 5.939,-13.255 13.255,-13.255l47.048,0l0,-21.116c0,-7.315 -5.939,-13.254 -13.254,-13.254l-68.165,-0c-7.315,-0 -13.254,5.939 -13.254,13.254l0,98.408c0,7.315 5.939,13.254 13.254,13.254l21.116,0Z" style="fill:#fff;fill-opacity:0;stroke:#000;stroke-width:14px;"/></svg>