<?xml version="1.0" encoding="UTF-8" standalone="no"?>
<!DOCTYPE svg PUBLIC "-//W3C//DTD SVG 1.1//EN" "http://www.w3.org/Graphics/SVG/1.1/DTD/svg11.dtd">
<svg width="100%" height="100%" viewBox="0 0 103 103" version="1.1" xmlns="http://www.w3.org/2000/svg" xmlns:xlink="http://www.w3.org/1999/xlink" xml:space="preserve" xmlns:serif="http://www.serif.com/" style="fill-rule:evenodd;clip-rule:evenodd;stroke-linejoin:round;stroke-miterlimit:2;">
    <g transform="matrix(1,0,0,1,-12.9851,-12.0475)">
        <g transform="matrix(1,0,0,1,0.937605,0)">
            <g transform="matrix(1,0,0,1,10.0475,10.0475)">
                <path d="M33.86,2C51.443,2 65.719,16.276 65.719,33.86C65.719,51.443 51.443,65.719 33.86,65.719C16.276,65.719 2,51.443 2,33.86C2,16.276 16.276,2 33.86,2ZM21.322,13.238C25.784,13.238 29.407,16.86 29.407,21.322C29.407,25.784 25.784,29.407 21.322,29.407C16.86,29.407 13.238,25.784 13.238,21.322C13.238,16.86 16.86,13.238 21.322,13.238Z" style="fill:#5E3208;"/>
            </g>
            <g transform="matrix(1,0,0,1,10.0475,10.0475)">
                <path d="M54.342,68.133L62.949,67.795C63.234,67.783 63.511,67.892 63.713,68.094C63.915,68.295 64.023,68.572 64.012,68.857L63.674,77.464L69.158,82.948L77.765,82.61C78.05,82.599 78.327,82.707 78.529,82.909C78.73,83.111 78.839,83.388 78.827,83.673L78.501,92.001L86.829,91.674C87.114,91.663 87.391,91.772 87.593,91.973C87.795,92.175 87.903,92.452 87.892,92.737L87.554,101.344L89.51,103.3C90.269,104.059 91.327,104.44 92.396,104.338C94.4,104.148 97.781,103.826 100.245,103.592C101.998,103.425 103.373,102.015 103.495,100.258C103.662,97.868 103.887,94.633 104.021,92.708C104.094,91.669 103.712,90.649 102.975,89.913C95.409,82.347 53.384,40.321 53.384,40.321L39.957,53.747L54.342,68.133Z" style="fill:#5E3208;"/>
            </g>
        </g>
    </g>
</svg>
