<?xml version="1.0" encoding="UTF-8" standalone="no"?>
<!DOCTYPE svg PUBLIC "-//W3C//DTD SVG 1.1//EN" "http://www.w3.org/Graphics/SVG/1.1/DTD/svg11.dtd">
<svg width="100%" height="100%" viewBox="0 0 1605 1605" version="1.1" xmlns="http://www.w3.org/2000/svg" xmlns:xlink="http://www.w3.org/1999/xlink" xml:space="preserve" xmlns:serif="http://www.serif.com/" style="fill-rule:evenodd;clip-rule:evenodd;stroke-linecap:round;stroke-linejoin:round;stroke-miterlimit:1.5;">
    <g transform="matrix(1,0,0,1,-379.029,-379.029)">
        <path d="M1181.1,379.529C1623.5,379.529 1982.68,738.702 1982.68,1181.1C1982.68,1623.5 1623.5,1982.68 1181.1,1982.68C738.702,1982.68 379.529,1623.5 379.529,1181.1C379.529,738.702 738.702,379.529 1181.1,379.529ZM498.434,1213.19C498.435,1590.22 804.075,1895.86 1181.1,1895.86C1558.13,1895.86 1863.77,1590.22 1863.77,1213.19L498.434,1213.19ZM1594.86,884.837C1607.68,862.637 1614.42,837.453 1614.42,811.818C1614.42,731.217 1548.99,665.779 1468.39,665.779C1387.79,665.779 1322.35,731.217 1322.35,811.818C1322.35,837.453 1329.1,862.637 1341.91,884.837L1594.86,884.837ZM1020.73,884.837C1033.54,862.637 1040.29,837.453 1040.29,811.818C1040.29,731.217 974.853,665.779 894.252,665.779C813.65,665.779 748.212,731.217 748.212,811.818C748.212,837.453 754.96,862.637 767.778,884.837L1020.73,884.837Z" style="fill:#5E3208;"/>
    </g>
</svg>
