<?xml version="1.0" encoding="UTF-8" standalone="no"?><!DOCTYPE svg PUBLIC "-//W3C//DTD SVG 1.1//EN" "http://www.w3.org/Graphics/SVG/1.1/DTD/svg11.dtd">
<svg width="100%" height="100%" viewBox="0 0 100 133" version="1.1" xmlns="http://www.w3.org/2000/svg" xmlns:xlink="http://www.w3.org/1999/xlink" xml:space="preserve" xmlns:serif="http://www.serif.com/" style="fill-rule:evenodd;clip-rule:evenodd;stroke-linecap:round;stroke-linejoin:round;stroke-miterlimit:1.5;"><path d="M89.282,33.742l-78.35,-0l0,85.043c0,2.458 0.977,4.815 2.715,6.553c1.738,1.738 4.095,2.714 6.553,2.714l59.728,0c2.481,0 4.86,-0.985 6.614,-2.739c1.754,-1.755 2.74,-4.134 2.74,-6.615c-0,-23.831 -0,-84.956 -0,-84.956Z" style="stroke:#000;stroke-width:8px;"/><path d="M25.858,47.818l0,66.701" style="fill:none;stroke:#fff;stroke-width:8px;"/><path d="M49.984,47.818l0,66.701" style="fill:none;stroke:#fff;stroke-width:8px;"/><path d="M74.583,47.818l-0,66.701" style="fill:none;stroke:#fff;stroke-width:8px;"/><rect x="4" y="14.07" width="91.432" height="5.752" style="stroke:#000;stroke-width:8px;"/><rect x="36.83" y="4" width="26.021" height="12.866" style="stroke:#000;stroke-width:8px;"/></svg>