<?xml version="1.0" encoding="UTF-8" standalone="no"?>
<!DOCTYPE svg PUBLIC "-//W3C//DTD SVG 1.1//EN" "http://www.w3.org/Graphics/SVG/1.1/DTD/svg11.dtd">
<svg width="100%" height="100%" viewBox="0 0 28 30" version="1.1" xmlns="http://www.w3.org/2000/svg" xmlns:xlink="http://www.w3.org/1999/xlink" xml:space="preserve" xmlns:serif="http://www.serif.com/" style="fill-rule:evenodd;clip-rule:evenodd;stroke-linejoin:round;stroke-miterlimit:2;">
    <g transform="matrix(1,0,0,1,-2.06234,-0.75856)">
        <g transform="matrix(1,0,0,1,-3.42757,-1.54522)">
            <circle cx="19.428" cy="9.777" r="7.473"/>
        </g>
        <g transform="matrix(1,0,0,1,0.180065,0)">
            <path d="M29.758,29.006C29.758,22.379 24.385,17.006 17.758,17.006C16.473,17.006 15.167,17.006 13.882,17.006C7.255,17.006 1.882,22.379 1.882,29.006C1.882,29.128 1.882,29.243 1.882,29.351C1.882,29.616 1.988,29.871 2.175,30.058C2.363,30.246 2.617,30.351 2.882,30.351C7.224,30.351 24.416,30.351 28.758,30.351C29.023,30.351 29.277,30.246 29.465,30.058C29.652,29.871 29.758,29.616 29.758,29.351C29.758,29.243 29.758,29.128 29.758,29.006Z"/>
        </g>
    </g>
</svg>
